<svg xmlns="http://www.w3.org/2000/svg" viewBox="0 0 210.58 210.58"><defs><style>.cls-1{fill:#ac0033;}.cls-2{fill:none;}</style></defs><title>Asset 40</title><g id="Layer_2" data-name="Layer 2"><g id="Layer_3" data-name="Layer 3"><path class="cls-1" d="M157.15,123.47l17.48-9.71-15.08-13.13,12-16-19.11-5.87,4.48-19.49-19.85,2.42-3.84-19.62L116.1,52.37,104.61,36,93.13,52.37,76,42.09,72.14,61.71,52.3,59.29l4.48,19.49L37.66,84.65l12,16L34.6,113.76l17.48,9.71L43.65,141.6l19.92,1.76-.33,20,18.91-6.49L90,175.26l14.64-13.62,14.64,13.62,7.83-18.4L146,163.35l-.33-20,19.92-1.76ZM96.36,84.86H93.55L88.39,126.8l-.53-.09a28.44,28.44,0,0,0-12.43.88,27.91,27.91,0,0,0-3.17,1.17,8.2,8.2,0,0,1-1,.39A1.81,1.81,0,0,1,69.14,127l5.42-44.31a28.4,28.4,0,0,1,25.3-3.94,29,29,0,0,1,3.88,1.59,28.62,28.62,0,0,1,2.86,1.65,26.22,26.22,0,0,0,4.34,2.19,28.36,28.36,0,0,0,5.09,1.5l.32.06-16.12,16.12,1.29-10.5a7,7,0,0,0-.24-3.66,4.76,4.76,0,0,0-1.44-1.82,4.94,4.94,0,0,0-2-.87,5.13,5.13,0,0,0-1.15-.12Zm39,36.37c-.29.48-1.32,1.83-1.47,2a27.87,27.87,0,0,1-2.72,3,29.45,29.45,0,0,1-2.8,2.33,27.49,27.49,0,0,1-2.47,1.61c-.61.35-1.3.71-1.9,1s-1.25.57-1.85.81a27.72,27.72,0,0,1-3.85,1.2c-.39.09-.78.17-1.18.25-.55.1-1.14.2-1.67.27-.7.09-1.34.14-1.94.18s-1.4.06-2,0a28.78,28.78,0,0,1-3.33-.23c-.71-.09-1.11-.16-1.11-.16a28.26,28.26,0,0,1-3.22-.75c-.83-.25-1.65-.51-2.56-.88-.46-.18-.9-.38-1.34-.57,0,0-1.21-.58-1.49-.75l-1.17-.66-.52-.28,2.52-20.47,2.58,2.58,10.49,10.49s4.43,4.9,9.28,4.9a7,7,0,0,0,3.55-1,9.53,9.53,0,0,0,1.92-1.69l-18.19-18.22a2.12,2.12,0,0,0-.41-.32l21-21c.58-.17,1.22-.38,1.9-.64.49-.19.94-.37,1.5-.61,0,0,.94-.41,2.14-1.06.74-.39,1.48-.86,2.27-1.38a1.81,1.81,0,0,1,1.25-.34,1.82,1.82,0,0,1,1.56,1.89Z"/></g><g id="Layer_4" data-name="Layer 4"><rect class="cls-2" width="210.58" height="210.58"/><rect class="cls-2" width="210.58" height="210.58"/></g></g></svg>